<?xml version="1.0" encoding="UTF-8" standalone="no"?>
<!-- Created with Inkscape (http://www.inkscape.org/) -->

<svg
   xmlns:dc="http://purl.org/dc/elements/1.1/"
   xmlns:cc="http://creativecommons.org/ns#"
   xmlns:rdf="http://www.w3.org/1999/02/22-rdf-syntax-ns#"
   xmlns:svg="http://www.w3.org/2000/svg"
   xmlns="http://www.w3.org/2000/svg"
   xmlns:sodipodi="http://sodipodi.sourceforge.net/DTD/sodipodi-0.dtd"
   xmlns:inkscape="http://www.inkscape.org/namespaces/inkscape"
   width="30"
   height="11.5"
   viewBox="0 0 7.9374998 3.0427085"
   version="1.1"
   id="svg8"
   inkscape:version="0.92.4 (5da689c313, 2019-01-14)"
   sodipodi:docname="backtotop.svg">
  <defs
     id="defs2" />
  <sodipodi:namedview
     id="base"
     pagecolor="#ffffff"
     bordercolor="#666666"
     borderopacity="1.0"
     inkscape:pageopacity="1"
     inkscape:pageshadow="2"
     inkscape:zoom="31.678384"
     inkscape:cx="21.429113"
     inkscape:cy="10.146953"
     inkscape:document-units="mm"
     inkscape:current-layer="layer1"
     showgrid="true"
     units="px"
     inkscape:window-width="1920"
     inkscape:window-height="1001"
     inkscape:window-x="-9"
     inkscape:window-y="-9"
     inkscape:window-maximized="1">
    <inkscape:grid
       type="xygrid"
       id="grid10" />
  </sodipodi:namedview>
  <metadata
     id="metadata5">
    <rdf:RDF>
      <cc:Work
         rdf:about="">
        <dc:format>image/svg+xml</dc:format>
        <dc:type
           rdf:resource="http://purl.org/dc/dcmitype/StillImage" />
        <dc:title></dc:title>
      </cc:Work>
    </rdf:RDF>
  </metadata>
  <g
     inkscape:label="Layer 1"
     inkscape:groupmode="layer"
     id="layer1"
     transform="translate(0,-293.95727)">
    <path
       style="opacity:0;fill:#bed6b3;fill-opacity:0;stroke:none;stroke-width:0.01687289;stroke-miterlimit:4;stroke-dasharray:none;stroke-opacity:1"
       d="M 5.0997573,19.532754 C 4.703212,19.02445 4.2958849,18.50459 4.1945859,18.377511 L 4.010406,18.146457 9.1789702,14.094746 C 12.02168,11.866305 14.492793,9.9252222 14.67033,9.7812283 l 0.322797,-0.2618072 5.48915,4.2990359 c 3.019032,2.36447 5.490048,4.309081 5.491145,4.321358 0.0016,0.01798 -1.725825,2.235354 -1.796505,2.306035 -0.01101,0.01101 -2.073357,-1.590376 -4.582991,-3.558638 -3.682474,-2.888098 -4.578478,-3.571247 -4.643329,-3.540259 -0.0442,0.02112 -2.102709,1.625451 -4.574475,3.565183 -2.4717643,1.939733 -4.5078999,3.530841 -4.5247453,3.535796 -0.016845,0.005 -0.3550741,-0.406874 -0.7516194,-0.915178 z"
       id="path3726"
       inkscape:connector-curvature="0"
       transform="matrix(0.26458333,0,0,0.26458333,0,289.06248)" />
    <path
       style="opacity:0;fill:#bed6b3;fill-opacity:0;stroke:none;stroke-width:0.01687289;stroke-miterlimit:4;stroke-dasharray:none;stroke-opacity:1"
       d="M 5.0997573,19.532754 C 4.703212,19.02445 4.2958849,18.50459 4.1945859,18.377511 L 4.010406,18.146457 9.1789702,14.094746 C 12.02168,11.866305 14.492793,9.9252222 14.67033,9.7812283 l 0.322797,-0.2618072 5.48915,4.2990359 c 3.019032,2.36447 5.490048,4.309081 5.491145,4.321358 0.0016,0.01798 -1.725825,2.235354 -1.796505,2.306035 -0.01101,0.01101 -2.073357,-1.590376 -4.582991,-3.558638 -3.682474,-2.888098 -4.578478,-3.571247 -4.643329,-3.540259 -0.0442,0.02112 -2.102709,1.625451 -4.574475,3.565183 -2.4717643,1.939733 -4.5078999,3.530841 -4.5247453,3.535796 -0.016845,0.005 -0.3550741,-0.406874 -0.7516194,-0.915178 z"
       id="path4533"
       inkscape:connector-curvature="0"
       transform="matrix(0.26458333,0,0,0.26458333,0,289.06248)" />
    <path
       style="opacity:0;fill:#bed6b3;fill-opacity:0;stroke:none;stroke-width:0.01687289;stroke-miterlimit:4;stroke-dasharray:none;stroke-opacity:1"
       d="M 5.0997573,19.532754 C 4.703212,19.02445 4.2958849,18.50459 4.1945859,18.377511 L 4.010406,18.146457 9.1789702,14.094746 C 12.02168,11.866305 14.492793,9.9252222 14.67033,9.7812283 l 0.322797,-0.2618072 5.48915,4.2990359 c 3.019032,2.36447 5.490048,4.309081 5.491145,4.321358 0.0016,0.01798 -1.725825,2.235354 -1.796505,2.306035 -0.01101,0.01101 -2.073357,-1.590376 -4.582991,-3.558638 -3.682474,-2.888098 -4.578478,-3.571247 -4.643329,-3.540259 -0.0442,0.02112 -2.102709,1.625451 -4.574475,3.565183 -2.4717643,1.939733 -4.5078999,3.530841 -4.5247453,3.535796 -0.016845,0.005 -0.3550741,-0.406874 -0.7516194,-0.915178 z"
       id="path4535"
       inkscape:connector-curvature="0"
       transform="matrix(0.26458333,0,0,0.26458333,0,289.06248)" />
    <path
       style="opacity:0;fill:#bed6b3;fill-opacity:0;stroke:none;stroke-width:0.01687289;stroke-miterlimit:4;stroke-dasharray:none;stroke-opacity:1"
       d="M 5.0997573,19.532754 C 4.703212,19.02445 4.2958849,18.50459 4.1945859,18.377511 L 4.010406,18.146457 9.1789702,14.094746 C 12.02168,11.866305 14.492793,9.9252222 14.67033,9.7812283 l 0.322797,-0.2618072 5.48915,4.2990359 c 3.019032,2.36447 5.490048,4.309081 5.491145,4.321358 0.0016,0.01798 -1.725825,2.235354 -1.796505,2.306035 -0.01101,0.01101 -2.073357,-1.590376 -4.582991,-3.558638 -3.682474,-2.888098 -4.578478,-3.571247 -4.643329,-3.540259 -0.0442,0.02112 -2.102709,1.625451 -4.574475,3.565183 -2.4717643,1.939733 -4.5078999,3.530841 -4.5247453,3.535796 -0.016845,0.005 -0.3550741,-0.406874 -0.7516194,-0.915178 z"
       id="path4537"
       inkscape:connector-curvature="0"
       transform="matrix(0.26458333,0,0,0.26458333,0,289.06248)" />
    <path
       style="opacity:0;fill:#bed6b3;fill-opacity:1;stroke:none;stroke-width:0.01687289;stroke-miterlimit:4;stroke-dasharray:none;stroke-opacity:1"
       d="M 5.0997573,19.532754 C 4.703212,19.02445 4.2958849,18.50459 4.1945859,18.377511 L 4.010406,18.146457 9.1789702,14.094746 C 12.02168,11.866305 14.492793,9.9252222 14.67033,9.7812283 l 0.322797,-0.2618072 5.48915,4.2990359 c 3.019032,2.36447 5.490048,4.309081 5.491145,4.321358 0.0016,0.01798 -1.725825,2.235354 -1.796505,2.306035 -0.01101,0.01101 -2.073357,-1.590376 -4.582991,-3.558638 -3.682474,-2.888098 -4.578478,-3.571247 -4.643329,-3.540259 -0.0442,0.02112 -2.102709,1.625451 -4.574475,3.565183 -2.4717643,1.939733 -4.5078999,3.530841 -4.5247453,3.535796 -0.016845,0.005 -0.3550741,-0.406874 -0.7516194,-0.915178 z"
       id="path4539"
       inkscape:connector-curvature="0"
       transform="matrix(0.26458333,0,0,0.26458333,0,289.06248)" />
    <path
       style="opacity:0;fill:#bed6b3;fill-opacity:1;stroke:none;stroke-width:0.01687289;stroke-miterlimit:4;stroke-dasharray:none;stroke-opacity:1"
       d="M 5.0997573,19.532754 C 4.703212,19.02445 4.2958849,18.50459 4.1945859,18.377511 L 4.010406,18.146457 9.1789702,14.094746 C 12.02168,11.866305 14.492793,9.9252222 14.67033,9.7812283 l 0.322797,-0.2618072 5.48915,4.2990359 c 3.019032,2.36447 5.490048,4.309081 5.491145,4.321358 0.0016,0.01798 -1.725825,2.235354 -1.796505,2.306035 -0.01101,0.01101 -2.073357,-1.590376 -4.582991,-3.558638 -3.682474,-2.888098 -4.578478,-3.571247 -4.643329,-3.540259 -0.0442,0.02112 -2.102709,1.625451 -4.574475,3.565183 -2.4717643,1.939733 -4.5078999,3.530841 -4.5247453,3.535796 -0.016845,0.005 -0.3550741,-0.406874 -0.7516194,-0.915178 z"
       id="path4541"
       inkscape:connector-curvature="0"
       transform="matrix(0.26458333,0,0,0.26458333,0,289.06248)" />
    <path
       style="opacity:0;fill:#0000ff;fill-opacity:0.79436275;stroke:none;stroke-width:0.01687289;stroke-miterlimit:4;stroke-dasharray:none;stroke-opacity:1"
       d="M 5.0997573,19.532754 C 4.703212,19.02445 4.2958849,18.50459 4.1945859,18.377511 L 4.010406,18.146457 9.1789702,14.094746 C 12.02168,11.866305 14.492793,9.9252222 14.67033,9.7812283 l 0.322797,-0.2618072 5.48915,4.2990359 c 3.019032,2.36447 5.490048,4.309081 5.491145,4.321358 0.0016,0.01798 -1.725825,2.235354 -1.796505,2.306035 -0.01101,0.01101 -2.073357,-1.590376 -4.582991,-3.558638 -3.682474,-2.888098 -4.578478,-3.571247 -4.643329,-3.540259 -0.0442,0.02112 -2.102709,1.625451 -4.574475,3.565183 -2.4717643,1.939733 -4.5078999,3.530841 -4.5247453,3.535796 -0.016845,0.005 -0.3550741,-0.406874 -0.7516194,-0.915178 z"
       id="path4543"
       inkscape:connector-curvature="0"
       transform="matrix(0.26458333,0,0,0.26458333,0,289.06248)" />
    <path
       style="opacity:0;fill:#bed6b3;fill-opacity:0;stroke:none;stroke-width:0.01687289;stroke-miterlimit:4;stroke-dasharray:none;stroke-opacity:1"
       d="M 5.0997573,19.532754 C 4.703212,19.02445 4.2958849,18.50459 4.1945859,18.377511 L 4.010406,18.146457 9.1789702,14.094746 C 12.02168,11.866305 14.492793,9.9252222 14.67033,9.7812283 l 0.322797,-0.2618072 5.48915,4.2990359 c 3.019032,2.36447 5.490048,4.309081 5.491145,4.321358 0.0016,0.01798 -1.725825,2.235354 -1.796505,2.306035 -0.01101,0.01101 -2.073357,-1.590376 -4.582991,-3.558638 -3.682474,-2.888098 -4.578478,-3.571247 -4.643329,-3.540259 -0.0442,0.02112 -2.102709,1.625451 -4.574475,3.565183 -2.4717643,1.939733 -4.5078999,3.530841 -4.5247453,3.535796 -0.016845,0.005 -0.3550741,-0.406874 -0.7516194,-0.915178 z"
       id="path4545"
       inkscape:connector-curvature="0"
       transform="matrix(0.26458333,0,0,0.26458333,0,289.06248)" />
    <path
       style="opacity:0;fill:#bed6b3;fill-opacity:0;stroke:none;stroke-width:0.01687289;stroke-miterlimit:4;stroke-dasharray:none;stroke-opacity:1"
       d="M 5.0997573,19.532754 C 4.703212,19.02445 4.2958849,18.50459 4.1945859,18.377511 L 4.010406,18.146457 9.1789702,14.094746 C 12.02168,11.866305 14.492793,9.9252222 14.67033,9.7812283 l 0.322797,-0.2618072 5.48915,4.2990359 c 3.019032,2.36447 5.490048,4.309081 5.491145,4.321358 0.0016,0.01798 -1.725825,2.235354 -1.796505,2.306035 -0.01101,0.01101 -2.073357,-1.590376 -4.582991,-3.558638 -3.682474,-2.888098 -4.578478,-3.571247 -4.643329,-3.540259 -0.0442,0.02112 -2.102709,1.625451 -4.574475,3.565183 -2.4717643,1.939733 -4.5078999,3.530841 -4.5247453,3.535796 -0.016845,0.005 -0.3550741,-0.406874 -0.7516194,-0.915178 z"
       id="path4547"
       inkscape:connector-curvature="0"
       transform="matrix(0.26458333,0,0,0.26458333,0,289.06248)" />
    <path
       style="opacity:0;fill:#bed6b3;fill-opacity:0;stroke:none;stroke-width:0.01687289;stroke-miterlimit:4;stroke-dasharray:none;stroke-opacity:1"
       d="M 5.0997573,19.532754 C 4.703212,19.02445 4.2958849,18.50459 4.1945859,18.377511 L 4.010406,18.146457 9.1789702,14.094746 C 12.02168,11.866305 14.492793,9.9252222 14.67033,9.7812283 l 0.322797,-0.2618072 5.48915,4.2990359 c 3.019032,2.36447 5.490048,4.309081 5.491145,4.321358 0.0016,0.01798 -1.725825,2.235354 -1.796505,2.306035 -0.01101,0.01101 -2.073357,-1.590376 -4.582991,-3.558638 -3.682474,-2.888098 -4.578478,-3.571247 -4.643329,-3.540259 -0.0442,0.02112 -2.102709,1.625451 -4.574475,3.565183 -2.4717643,1.939733 -4.5078999,3.530841 -4.5247453,3.535796 -0.016845,0.005 -0.3550741,-0.406874 -0.7516194,-0.915178 z"
       id="path4549"
       inkscape:connector-curvature="0"
       transform="matrix(0.26458333,0,0,0.26458333,0,289.06248)" />
    <path
       style="opacity:0;fill:#bed6b3;fill-opacity:1;stroke:none;stroke-width:0.01687289;stroke-miterlimit:4;stroke-dasharray:none;stroke-opacity:1"
       d="M 5.0997573,19.532754 C 4.703212,19.02445 4.2958849,18.50459 4.1945859,18.377511 L 4.010406,18.146457 9.1789702,14.094746 C 12.02168,11.866305 14.492793,9.9252222 14.67033,9.7812283 l 0.322797,-0.2618072 5.48915,4.2990359 c 3.019032,2.36447 5.490048,4.309081 5.491145,4.321358 0.0016,0.01798 -1.725825,2.235354 -1.796505,2.306035 -0.01101,0.01101 -2.073357,-1.590376 -4.582991,-3.558638 -3.682474,-2.888098 -4.578478,-3.571247 -4.643329,-3.540259 -0.0442,0.02112 -2.102709,1.625451 -4.574475,3.565183 -2.4717643,1.939733 -4.5078999,3.530841 -4.5247453,3.535796 -0.016845,0.005 -0.3550741,-0.406874 -0.7516194,-0.915178 z"
       id="path4551"
       inkscape:connector-curvature="0"
       transform="matrix(0.26458333,0,0,0.26458333,0,289.06248)" />
    <rect
       style="opacity:0;fill:#bed6b3;fill-opacity:1;stroke:none;stroke-width:0.1;stroke-miterlimit:4;stroke-dasharray:none;stroke-opacity:1"
       id="rect4553"
       width="6.614583"
       height="1.3229166"
       x="1.5875"
       y="290.12082" />
    <rect
       style="opacity:0;fill:#bed6b3;fill-opacity:0;stroke:none;stroke-width:0.1;stroke-miterlimit:4;stroke-dasharray:none;stroke-opacity:1"
       id="rect4555"
       width="2.3812499"
       height="1.0583333"
       x="1.0583333"
       y="289.59164" />
    <rect
       style="opacity:0;fill:#bed6b3;fill-opacity:0;stroke:none;stroke-width:0.1;stroke-miterlimit:4;stroke-dasharray:none;stroke-opacity:1"
       id="rect4557"
       width="5.5562501"
       height="1.0583333"
       x="3.4395833"
       y="289.32706" />
    <g
       id="g3724"
       transform="matrix(1.1808045,0,0,1,-0.71757232,0.99218441)">
      <rect
         transform="rotate(-38.104606)"
         ry="0"
         y="233.03111"
         x="-181.41052"
         height="0.79375166"
         width="3.7041669"
         id="rect3715"
         style="opacity:1;fill:#bed6b3;fill-opacity:1;stroke:none;stroke-width:0.18708308;stroke-miterlimit:4;stroke-dasharray:none;stroke-opacity:1" />
      <rect
         style="opacity:1;fill:#bed6b3;fill-opacity:1;stroke:none;stroke-width:0.18708308;stroke-miterlimit:4;stroke-dasharray:none;stroke-opacity:1"
         id="rect3720"
         width="3.7041669"
         height="0.79375166"
         x="-187.65643"
         y="228.13289"
         ry="0"
         transform="matrix(-0.78688542,-0.61709913,-0.61709913,0.78688542,0,0)" />
    </g>
  </g>
</svg>
